<svg width="1586" height="1925" viewBox="0 0 1586 1925" xmlns="http://www.w3.org/2000/svg" xml:space="preserve" overflow="hidden">
  <g transform="translate(-1498 -288)">
    <path d="M1505.5 1172C1505.5 686.266 1843.08 292.5 2259.5 292.5 2675.92 292.5 3013.5 686.266 3013.5 1172 3013.5 1657.73 2675.92 2051.5 2259.5 2051.5 1843.08 2051.5 1505.5 1657.73 1505.5 1172ZM1788.23 1172C1788.23 1501.58 1999.23 1768.77 2259.5 1768.77 2519.77 1768.77 2730.77 1501.58 2730.77 1172 2730.77 842.416 2519.77 575.235 2259.5 575.235 1999.23 575.235 1788.23 842.416 1788.23 1172Z" fill="#ffffff" fill-rule="evenodd"/>
    <path d="M2641.65 1932.52 2812.77 1769.02 3075.54 2044.02 2904.43 2207.52Z" fill="#ffffff" fill-rule="nonzero"/>
  </g>
</svg>
